<svg width="31" height="33" viewBox="0 0 31 33" fill="none" xmlns="http://www.w3.org/2000/svg">
<path d="M11.625 30.2499C12.0898 30.2499 13.809 29.4148 15.5638 27.7444M15.5638 27.7444C17.0601 26.3201 18.5823 24.2884 19.375 21.6496C21.0972 15.916 10.7639 21.6496 14.2083 26.4276C14.6321 27.0154 15.0886 27.4451 15.5638 27.7444ZM15.5638 27.7444C17.634 29.0481 20.061 27.8767 21.7053 26.5297C22.2079 26.1181 22.4591 25.9122 22.6091 25.9763C22.7592 26.0404 22.8467 26.4087 23.0222 27.1455C23.5834 29.5032 25.2411 31.4063 27.125 28.3394" stroke="#217B50" stroke-width="1.5" stroke-linecap="round" stroke-linejoin="round"/>
<path d="M25.8333 17.875V10.8497C25.8333 8.49251 25.8333 7.31389 25.4872 6.37256C24.9308 4.85924 23.754 3.66554 22.2621 3.10111C21.3342 2.75 20.1723 2.75 17.8485 2.75C13.7818 2.75 11.7485 2.75 10.1245 3.36443C7.51381 4.35219 5.45446 6.44116 4.48071 9.08946C3.875 10.7368 3.875 12.7994 3.875 16.9246V20.4681C3.875 24.7412 3.875 26.8777 4.96995 28.3614C5.28367 28.7864 5.65572 29.1639 6.0748 29.4822C6.54896 29.8422 7.09075 30.0856 7.75 30.25" stroke="#217B50" stroke-width="1.5" stroke-linecap="round" stroke-linejoin="round"/>
<path d="M3.875 16.5C3.875 13.9686 5.80266 11.9167 8.18055 11.9167C9.04053 11.9167 10.0544 12.0771 10.8905 11.8386C11.6334 11.6267 12.2137 11.009 12.4128 10.2181C12.6368 9.32805 12.4861 8.24879 12.4861 7.33333C12.4861 4.80202 14.4138 2.75 16.7917 2.75" stroke="#217B50" stroke-width="1.5" stroke-linecap="round" stroke-linejoin="round"/>
</svg>
