<svg width="33" height="34" viewBox="0 0 33 34" fill="none" xmlns="http://www.w3.org/2000/svg">
<path d="M16.5 11.3334V17L19.25 19.8334" stroke="#217B50" stroke-width="2" stroke-linecap="round" stroke-linejoin="round"/>
<path d="M4.19373 15.5833C4.50185 12.4667 5.91284 9.57609 8.15748 7.46293C10.4021 5.34976 13.3233 4.16198 16.3637 4.1262C19.4041 4.09042 22.3508 5.20915 24.6417 7.26894C26.9326 9.32873 28.4073 12.1854 28.7845 15.2939C29.1616 18.4024 28.4148 21.5452 26.6865 24.1226C24.9582 26.7001 22.3694 28.5317 19.414 29.2681C16.4586 30.0045 13.3435 29.5941 10.6631 28.1152C7.98265 26.6364 5.92447 24.1925 4.88123 21.25M4.19373 28.3333V21.25H11.0687" stroke="#217B50" stroke-width="2" stroke-linecap="round" stroke-linejoin="round"/>
</svg>
